<?xml version="1.0" encoding="utf-8"?>
<!-- Generator: Adobe Illustrator 24.1.1, SVG Export Plug-In . SVG Version: 6.00 Build 0)  -->
<svg version="1.1" xmlns="http://www.w3.org/2000/svg" xmlns:xlink="http://www.w3.org/1999/xlink" x="0px" y="0px"
	 viewBox="0 0 500 500" style="enable-background:new 0 0 500 500;" xml:space="preserve">
<style type="text/css">
	.st0{fill:#C7C7C7;}
	.st1{fill:#88C8FC;}
	.st2{fill:#29275F;}
	.st3{fill:#508DD2;}
	.st4{fill:#FFFFFF;}
	.st5{fill:#67A4E9;}
	.st6{fill:#AFD4EF;}
	.st7{fill:#E6AC4B;}
</style>
<g id="BACKGROUND">
	<g>
		<g>
			<g>
				<rect width="500" height="500"/>
			</g>
		</g>
	</g>
</g>
<g id="OBJECTS">
	<g>
		<ellipse class="st0" cx="244.3" cy="353.6" rx="213.6" ry="41.9"/>
	</g>
	<g>
		<g>
			<g>
				<path class="st1" d="M425,286.2c-18.5,14.7-44.1-8-38-26.6c3.2-9.6,10.7-17.2,12.2-27.4c1.6-10.5,6.5-14.9,14.6-21.2
					c3.2-2.5,4.4-7,5.9-10.8c2.8-7,7-12.9,13.7-16.7c8.3-4.6,24.5,1.6,26.5,12c2.5,12.6-13.9,18.6-19.3,26.7c-4.6,7-0.3,16.1-7,23.7
					C423.5,257.4,439.5,275.4,425,286.2z"/>
			</g>
		</g>
		<g>
			<path class="st2" d="M405.6,307.6c-0.4,0-0.7-0.3-0.7-0.7c-3.3-36.1,7.7-72.6,30.2-100.3c0.3-0.3,0.7-0.4,1.1-0.1
				c0.3,0.3,0.4,0.7,0.1,1.1c-22.2,27.4-33.1,63.5-29.8,99.2C406.4,307.2,406.1,307.6,405.6,307.6
				C405.7,307.6,405.7,307.6,405.6,307.6z"/>
		</g>
	</g>
	<g>
		<g>
			<path class="st3" d="M416.1,262.5c-5,7.1-8.9,15-17.4,16.5c-12.8,2.3-28.1,14.5-27.3,30.5c-0.2,32.4,49.2,31.8,53,7.7
				c1.8-11.4,4.7-16.3,16.3-18c7-1,9.1-6.9,11-12.9c1.8-2.8,4.4-4.9,7.5-6c4.4-1.6,9.4-0.9,14.2-1.1c4.2-0.1,8.4-1,11.5-3.7
				c3-2.6,4.9-6.4,5.4-10.5c0.5-4.1-0.5-8.5-3-12.2c-2.3-3.5-5.7-6.3-9.5-7.8c-4.2-1.7-8.6-1.7-12.5,0c-4.5,1.9-8.1,5.3-11.6,8.6
				c0,0-0.1,0-0.1,0.1c-4.5,4.3-11,5.8-17.4,4.2C428.8,255.9,421.5,254.9,416.1,262.5z"/>
		</g>
		<g>
			<path class="st2" d="M370.8,338.9c-0.1,0-0.3,0-0.4-0.1c-0.4-0.2-0.5-0.7-0.3-1c21-35.4,54-61.7,92.9-74.2
				c0.4-0.1,0.8,0.1,0.9,0.5c0.1,0.4-0.1,0.8-0.5,0.9c-38.5,12.4-71.2,38.5-92,73.6C371.3,338.8,371.1,338.9,370.8,338.9z"/>
		</g>
	</g>
	<g>
		<g>
			<g>
				<path class="st3" d="M71.9,299.6c18.5,14.7,44.1-8,38-26.6c-3.2-9.6-10.7-17.2-12.2-27.4c-1.6-10.5-6.5-14.9-14.6-21.2
					c-3.2-2.5-4.4-7-5.9-10.8c-2.8-7-7-12.9-13.7-16.7c-8.3-4.6-24.5,1.6-26.5,12c-2.5,12.6,13.9,18.6,19.3,26.7
					c4.6,7,0.3,16.1,7,23.7C73.4,270.8,57.3,288.8,71.9,299.6z"/>
			</g>
		</g>
		<g>
			<path class="st2" d="M91.3,321.1C91.2,321.1,91.2,321,91.3,321.1c-0.5,0-0.8-0.4-0.7-0.8c3.2-35.7-7.6-71.8-29.8-99.2
				c-0.3-0.3-0.2-0.8,0.1-1.1c0.3-0.3,0.8-0.2,1.1,0.1c22.4,27.7,33.4,64.2,30.2,100.3C92,320.8,91.6,321.1,91.3,321.1z"/>
		</g>
	</g>
	<g>
		<g>
			<path class="st1" d="M83.9,271.6c5,7.1,8.9,15,17.4,16.5c12.8,2.3,28.1,14.5,27.3,30.5c0.2,32.4-49.2,31.8-53,7.7
				c-1.8-11.4-4.7-16.3-16.3-18c-7-1-9.1-6.9-11-12.9c-1.8-2.8-4.4-4.9-7.5-6c-4.4-1.6-9.4-0.9-14.2-1.1c-4.2-0.1-8.4-1-11.5-3.7
				c-3-2.6-4.9-6.4-5.4-10.5c-0.5-4.1,0.5-8.5,3-12.2c2.3-3.5,5.7-6.3,9.5-7.8c4.2-1.7,8.6-1.7,12.5,0c4.5,1.9,8.1,5.3,11.6,8.6
				c0,0,0.1,0,0.1,0.1c4.5,4.3,11,5.8,17.4,4.2C71.2,265,78.5,264,83.9,271.6z"/>
		</g>
		<g>
			<path class="st2" d="M129.2,348c-0.3,0-0.5-0.1-0.6-0.4c-20.8-35.1-53.5-61.2-92-73.6c-0.4-0.1-0.6-0.5-0.5-0.9
				c0.1-0.4,0.5-0.6,0.9-0.5c38.9,12.5,71.9,38.9,92.9,74.2c0.2,0.4,0.1,0.8-0.3,1C129.4,348,129.3,348,129.2,348z"/>
		</g>
	</g>
	<g>
		<g>
			<path class="st2" d="M437.1,380.6H60c-4.2,0-7.6-3.4-7.6-7.6v-3.2h392.4v3.2C444.8,377.2,441.3,380.6,437.1,380.6z"/>
		</g>
		<g>
			<polygon class="st4" points="403.8,310.1 93.3,310.1 52.3,369.8 444.8,369.8 			"/>
		</g>
		<g>
			<path class="st2" d="M398.5,113.1H98.6c-2.9,0-5.2,2.3-5.2,5.2v191.8h310.2V118.3C403.7,115.4,401.3,113.1,398.5,113.1z"/>
		</g>
		<g>
			<rect x="102.9" y="129.4" class="st5" width="291.2" height="165.4"/>
		</g>
		<g>
			<path class="st2" d="M437.1,381.4H60c-4.6,0-8.4-3.8-8.4-8.4v-3.2c0-0.4,0.3-0.8,0.8-0.8h392.4c0.4,0,0.8,0.3,0.8,0.8v3.2
				C445.5,377.6,441.7,381.4,437.1,381.4z M53.1,370.6v2.5c0,3.8,3.1,6.9,6.9,6.9h377.2c3.8,0,6.9-3.1,6.9-6.9v-2.5H53.1z"/>
		</g>
		<g>
			<path class="st2" d="M444.8,370.6H52.3c-0.3,0-0.5-0.2-0.7-0.4c-0.1-0.2-0.1-0.5,0-0.8l40.9-59.7c0.1-0.2,0.4-0.3,0.6-0.3h310.5
				c0.2,0,0.5,0.1,0.6,0.3l40.9,59.7c0.2,0.2,0.2,0.5,0,0.8C445.3,370.4,445,370.6,444.8,370.6z M53.8,369.1h389.6l-39.9-58.2H93.7
				L53.8,369.1z"/>
		</g>
		<g>
			<path class="st2" d="M403.7,310.8H93.4c-0.4,0-0.8-0.3-0.8-0.8V118.3c0-3.3,2.7-5.9,5.9-5.9h299.8c3.3,0,5.9,2.7,5.9,5.9v191.8
				C404.4,310.5,404.1,310.8,403.7,310.8z M94.2,309.3h308.7v-191c0-2.4-2-4.4-4.4-4.4H98.6c-2.4,0-4.4,2-4.4,4.4V309.3z"/>
		</g>
		<g>
			<path class="st2" d="M394.2,295.5H102.9c-0.4,0-0.8-0.3-0.8-0.8V129.4c0-0.4,0.3-0.8,0.8-0.8h291.2c0.4,0,0.8,0.3,0.8,0.8v165.4
				C394.9,295.2,394.6,295.5,394.2,295.5z M103.7,294h289.7V130.2H103.7V294z"/>
		</g>
		<g>
			<rect x="168.8" y="301.6" class="st4" width="159.6" height="7.2"/>
		</g>
		<g>
			<path class="st5" d="M235,121.1c0,2.7-2.2,4.9-4.9,4.9c-2.7,0-4.9-2.2-4.9-4.9c0-2.7,2.2-4.9,4.9-4.9
				C232.8,116.2,235,118.4,235,121.1z"/>
		</g>
		<g>
			<path class="st2" d="M304.8,365.7H192.3c-0.3,0-0.5-0.2-0.7-0.4c-0.1-0.2-0.1-0.5,0-0.8l11.7-17.1c0.1-0.2,0.4-0.3,0.6-0.3h89.1
				c0.2,0,0.5,0.1,0.6,0.3l11.7,17.1c0.2,0.2,0.2,0.5,0,0.8C305.3,365.6,305.1,365.7,304.8,365.7z M193.7,364.2h109.7l-10.7-15.6
				h-88.3L193.7,364.2z"/>
		</g>
		<g>
			<g>
				<g>
					<path class="st2" d="M134,326.1h-20.8c-0.3,0-0.5-0.1-0.6-0.4c-0.1-0.2-0.1-0.5,0-0.7l5.3-9.5c0.1-0.2,0.4-0.4,0.7-0.4h19.9
						c0.3,0,0.5,0.1,0.6,0.3c0.1,0.2,0.2,0.5,0,0.7l-4.5,9.5C134.5,325.9,134.3,326.1,134,326.1z M114.5,324.6h19l3.8-8H119
						L114.5,324.6z"/>
				</g>
				<g>
					<path class="st2" d="M169.8,326.1h-20.8c-0.3,0-0.5-0.1-0.6-0.3c-0.1-0.2-0.2-0.5-0.1-0.7l3.9-9.5c0.1-0.3,0.4-0.5,0.7-0.5
						h19.9c0.2,0,0.5,0.1,0.6,0.3c0.1,0.2,0.2,0.4,0.1,0.7l-3.1,9.5C170.4,325.9,170.1,326.1,169.8,326.1z M150.2,324.6h19.1l2.6-8
						h-18.4L150.2,324.6z"/>
				</g>
				<g>
					<path class="st2" d="M205.6,326.1h-20.8c-0.2,0-0.5-0.1-0.6-0.3c-0.1-0.2-0.2-0.4-0.1-0.6l2.5-9.5c0.1-0.3,0.4-0.6,0.7-0.6
						h19.9c0.2,0,0.4,0.1,0.6,0.3c0.1,0.2,0.2,0.4,0.2,0.6l-1.7,9.5C206.3,325.8,206,326.1,205.6,326.1z M185.9,324.6H205l1.4-8H188
						L185.9,324.6z"/>
				</g>
				<g>
					<path class="st2" d="M241.5,326.1h-20.8c-0.2,0-0.4-0.1-0.6-0.3c-0.1-0.2-0.2-0.4-0.2-0.6l1.1-9.5c0-0.4,0.4-0.7,0.7-0.7h19.9
						c0.2,0,0.4,0.1,0.5,0.2c0.1,0.1,0.2,0.3,0.2,0.5l-0.3,9.5C242.2,325.8,241.9,326.1,241.5,326.1z M221.6,324.6h19.2l0.2-8h-18.5
						L221.6,324.6z"/>
				</g>
				<g>
					<path class="st2" d="M277.3,326.1h-20.8c-0.4,0-0.7-0.3-0.8-0.7l-0.3-9.5c0-0.2,0.1-0.4,0.2-0.5c0.1-0.1,0.3-0.2,0.5-0.2h19.9
						c0.4,0,0.7,0.3,0.7,0.7l1.1,9.5c0,0.2,0,0.4-0.2,0.6C277.7,326,277.5,326.1,277.3,326.1z M257.3,324.6h19.2l-0.9-8H257
						L257.3,324.6z"/>
				</g>
				<g>
					<path class="st2" d="M313.1,326.1h-20.8c-0.4,0-0.7-0.3-0.7-0.6l-1.7-9.5c0-0.2,0-0.4,0.2-0.6c0.1-0.2,0.4-0.3,0.6-0.3h19.9
						c0.3,0,0.6,0.2,0.7,0.6l2.5,9.5c0.1,0.2,0,0.5-0.1,0.6C313.6,326,313.4,326.1,313.1,326.1z M293,324.6h19.2l-2.1-8h-18.5
						L293,324.6z"/>
				</g>
				<g>
					<path class="st2" d="M349,326.1h-20.8c-0.3,0-0.6-0.2-0.7-0.5l-3.1-9.5c-0.1-0.2,0-0.5,0.1-0.7c0.1-0.2,0.4-0.3,0.6-0.3h19.9
						c0.3,0,0.6,0.2,0.7,0.5l3.9,9.5c0.1,0.2,0.1,0.5-0.1,0.7C349.5,326,349.2,326.1,349,326.1z M328.8,324.6h19.1l-3.3-8h-18.4
						L328.8,324.6z"/>
				</g>
				<g>
					<path class="st2" d="M384.8,326.1h-20.8c-0.3,0-0.6-0.2-0.7-0.4l-4.5-9.5c-0.1-0.2-0.1-0.5,0-0.7c0.1-0.2,0.4-0.3,0.6-0.3h19.9
						c0.3,0,0.5,0.1,0.7,0.4l5.3,9.5c0.1,0.2,0.1,0.5,0,0.7C385.3,325.9,385.1,326.1,384.8,326.1z M364.5,324.6h19l-4.5-8h-18.3
						L364.5,324.6z"/>
				</g>
			</g>
		</g>
		<g>
			<g>
				<g>
					<path class="st2" d="M111.5,339.4H90.8c-0.3,0-0.5-0.1-0.6-0.4c-0.1-0.2-0.1-0.5,0-0.7l5.3-9.5c0.1-0.2,0.4-0.4,0.7-0.4H116
						c0.3,0,0.5,0.1,0.6,0.3c0.1,0.2,0.2,0.5,0,0.7l-4.5,9.5C112.1,339.2,111.8,339.4,111.5,339.4z M92,337.9h19l3.8-8H96.5
						L92,337.9z"/>
				</g>
				<g>
					<path class="st2" d="M147.3,339.4h-20.8c-0.3,0-0.5-0.1-0.6-0.3c-0.1-0.2-0.2-0.5-0.1-0.7l3.9-9.5c0.1-0.3,0.4-0.5,0.7-0.5
						h19.9c0.2,0,0.5,0.1,0.6,0.3c0.1,0.2,0.2,0.4,0.1,0.7l-3.1,9.5C148,339.2,147.7,339.4,147.3,339.4z M127.7,337.9h19.1l2.6-8
						H131L127.7,337.9z"/>
				</g>
				<g>
					<path class="st2" d="M183.2,339.4h-20.8c-0.2,0-0.5-0.1-0.6-0.3c-0.1-0.2-0.2-0.4-0.1-0.6l2.5-9.5c0.1-0.3,0.4-0.6,0.7-0.6
						h19.9c0.2,0,0.4,0.1,0.6,0.3c0.1,0.2,0.2,0.4,0.2,0.6l-1.7,9.5C183.9,339.1,183.5,339.4,183.2,339.4z M163.4,337.9h19.2l1.4-8
						h-18.5L163.4,337.9z"/>
				</g>
				<g>
					<path class="st2" d="M219,339.4h-20.8c-0.2,0-0.4-0.1-0.6-0.3c-0.1-0.2-0.2-0.4-0.2-0.6l1.1-9.5c0-0.4,0.4-0.7,0.7-0.7h19.9
						c0.2,0,0.4,0.1,0.5,0.2c0.1,0.1,0.2,0.3,0.2,0.5l-0.3,9.5C219.8,339.1,219.4,339.4,219,339.4z M199.1,337.9h19.2l0.2-8H200
						L199.1,337.9z"/>
				</g>
				<g>
					<path class="st2" d="M254.8,339.4h-20.8c-0.4,0-0.7-0.3-0.7-0.7l-0.3-9.5c0-0.2,0.1-0.4,0.2-0.5c0.1-0.1,0.3-0.2,0.5-0.2h19.9
						c0.4,0,0.7,0.3,0.7,0.7l1.1,9.5c0,0.2,0,0.4-0.2,0.6C255.3,339.3,255.1,339.4,254.8,339.4z M234.8,337.9H254l-0.9-8h-18.5
						L234.8,337.9z"/>
				</g>
				<g>
					<path class="st2" d="M290.7,339.4h-20.8c-0.4,0-0.7-0.3-0.7-0.6l-1.7-9.5c0-0.2,0-0.4,0.2-0.6c0.1-0.2,0.4-0.3,0.6-0.3h19.9
						c0.3,0,0.6,0.2,0.7,0.6l2.5,9.5c0.1,0.2,0,0.5-0.1,0.6C291.1,339.3,290.9,339.4,290.7,339.4z M270.6,337.9h19.2l-2.1-8h-18.5
						L270.6,337.9z"/>
				</g>
				<g>
					<path class="st2" d="M326.5,339.4h-20.8c-0.3,0-0.6-0.2-0.7-0.5l-3.1-9.5c-0.1-0.2,0-0.5,0.1-0.7c0.1-0.2,0.4-0.3,0.6-0.3h19.9
						c0.3,0,0.6,0.2,0.7,0.5l3.9,9.5c0.1,0.2,0.1,0.5-0.1,0.7C327,339.2,326.8,339.4,326.5,339.4z M306.3,337.9h19.1l-3.3-8h-18.4
						L306.3,337.9z"/>
				</g>
				<g>
					<path class="st2" d="M362.3,339.4h-20.8c-0.3,0-0.6-0.2-0.7-0.4l-4.5-9.5c-0.1-0.2-0.1-0.5,0-0.7c0.1-0.2,0.4-0.3,0.6-0.3H357
						c0.3,0,0.5,0.1,0.7,0.4l5.3,9.5c0.1,0.2,0.1,0.5,0,0.7C362.9,339.2,362.6,339.4,362.3,339.4z M342.1,337.9h19l-4.5-8h-18.3
						L342.1,337.9z"/>
				</g>
				<g>
					<path class="st2" d="M397.4,339.4h-20.8c-0.3,0-0.6-0.2-0.7-0.4l-4.5-9.5c-0.1-0.2-0.1-0.5,0-0.7c0.1-0.2,0.4-0.3,0.6-0.3h19.9
						c0.3,0,0.5,0.1,0.7,0.4l5.3,9.5c0.1,0.2,0.1,0.5,0,0.7C397.9,339.2,397.7,339.4,397.4,339.4z M377.2,337.9h19l-4.5-8h-18.3
						L377.2,337.9z"/>
				</g>
			</g>
		</g>
	</g>
	<g>
		<g>
			<g>
				<path class="st4" d="M334,100.3v161.1c0,9.6-7.8,17.4-17.4,17.4H180.4c-9.6,0-17.4-7.8-17.4-17.4V100.3
					c0-9.6,7.8-17.4,17.4-17.4h136.2C326.2,82.9,334,90.7,334,100.3z"/>
			</g>
			<g>
				<path class="st1" d="M281,92.7c0,2.4-1.9,4.3-4.3,4.3c-2.4,0-4.3-1.9-4.3-4.3c0-2.4,1.9-4.3,4.3-4.3
					C279.1,88.4,281,90.3,281,92.7z"/>
			</g>
			<g>
				<path class="st3" d="M299.9,92.7c0,2.4-1.9,4.3-4.3,4.3c-2.4,0-4.3-1.9-4.3-4.3c0-2.4,1.9-4.3,4.3-4.3
					C298,88.4,299.9,90.3,299.9,92.7z"/>
			</g>
			<g>
				<path class="st2" d="M318.8,92.7c0,2.4-1.9,4.3-4.3,4.3s-4.3-1.9-4.3-4.3c0-2.4,1.9-4.3,4.3-4.3S318.8,90.3,318.8,92.7z"/>
			</g>
			<g>
				<path class="st2" d="M316.6,279.4H180.4c-10,0-18.1-8.1-18.1-18.1V100.3c0-10,8.1-18.1,18.1-18.1h136.2c10,0,18.1,8.1,18.1,18.1
					v161.1C334.7,271.3,326.6,279.4,316.6,279.4z M180.4,83.7c-9.2,0-16.6,7.4-16.6,16.6v161.1c0,9.2,7.4,16.6,16.6,16.6h136.2
					c9.2,0,16.6-7.4,16.6-16.6V100.3c0-9.2-7.4-16.6-16.6-16.6H180.4z"/>
			</g>
			<g>
				<path class="st2" d="M334,101H163.1c-0.4,0-0.8-0.3-0.8-0.8c0-0.4,0.3-0.8,0.8-0.8H334c0.4,0,0.8,0.3,0.8,0.8
					C334.7,100.7,334.4,101,334,101z"/>
			</g>
		</g>
		<g>
			<polygon class="st3" points="222,122.2 203.4,114.3 184.9,122.2 184.9,78.4 222,78.4 			"/>
		</g>
		<g>
			<g>
				<g>
					<rect x="175.8" y="132.5" class="st1" width="43.1" height="46.5"/>
				</g>
			</g>
			<g>
				<g>
					<rect x="224.8" y="132.5" class="st0" width="96.4" height="4"/>
				</g>
				<g>
					<rect x="224.8" y="143" class="st0" width="96.4" height="4"/>
				</g>
				<g>
					<rect x="224.8" y="153.6" class="st0" width="96.4" height="4"/>
				</g>
				<g>
					<rect x="224.8" y="164.2" class="st0" width="96.4" height="4"/>
				</g>
				<g>
					<rect x="224.8" y="174.8" class="st0" width="55.7" height="4"/>
				</g>
				<g>
					<g>
						<rect x="175.8" y="195.3" class="st0" width="145.4" height="4"/>
					</g>
					<g>
						<rect x="175.8" y="205.9" class="st0" width="145.4" height="4"/>
					</g>
					<g>
						<rect x="175.8" y="216.5" class="st0" width="145.4" height="4"/>
					</g>
					<g>
						<rect x="175.8" y="227" class="st0" width="145.4" height="4"/>
					</g>
					<g>
						<rect x="175.8" y="237.6" class="st0" width="104.7" height="4"/>
					</g>
				</g>
			</g>
			<g>
				<rect x="253.7" y="113.1" class="st1" width="67" height="11"/>
			</g>
			<g>
				<path class="st2" d="M252.7,268.6c-0.1,0-0.2,0-0.3-0.1l-15.3-7.3c-0.4-0.2-0.5-0.6-0.4-1c0.2-0.4,0.6-0.5,1-0.4l15,7.2l15-7.2
					c0.4-0.2,0.8,0,1,0.4c0.2,0.4,0,0.8-0.4,1l-15.3,7.3C252.9,268.6,252.8,268.6,252.7,268.6z"/>
			</g>
		</g>
	</g>
	<g>
		<g>
			<path class="st4" d="M463.4,444.3h-88.9l-24.1-90.7c0,0-24.5-25.8-36.1-44.3c-11.6-18.5-16.2-24.6-17.2-30.7
				c-0.9-5.4-7.2-44.6-8.6-52.9c-0.2-0.9,0.1-1.8,0.8-2.5c0.1-0.1,0.2-0.2,0.4-0.3c2.8-2.1,9.6-4.9,17.4,8.5
				c8.9,15.4,10.2,34.9,10.4,39.5l3.2,5.3l8.7,14.6l10.8,18.3c0,0,11.5-2.1,19.4-11.5l-10.8-18.3l-8.7-14.6l-3.4-5.8l0-0.1
				l-23.3-32.7c0,0-11.5-5-22.7-10.3c-11.3-5.3-14.9-23.8-6.7-22.6c3.1,0.5,10,3,17.3,5.9c11.9,4.8,25.1,10.7,25.1,10.7
				c5.1-4.7,13.9-2,13.9-2s6.1-3.2,12.3-2.3c6.1,0.9,34.2,27.3,38.6,36.1c4.4,8.8,14.8,91.1,14.8,91.1L463.4,444.3z"/>
		</g>
		<g>
			<path class="st6" d="M295.8,200c-0.2,1.4-0.6,3.1-1.5,4.4c-1,1.5-2.9,2.1-4.5,1.4l-8-3.3c-1.5-0.6-2.5-2.2-2.3-3.9
				c0.2-1.3,0.5-2.8,1.4-4.1c0.9-1.4,2.7-2,4.3-1.4l8.1,2.8C295,196.6,296.1,198.3,295.8,200z"/>
		</g>
		<g>
			<path class="st6" d="M299.2,237.5c-2.1,1.7-5.4,1.8-7.2,1.7c-0.7,0-1.3-0.5-1.4-1.2l-1.9-11.5c-0.1-0.5,0.1-1.1,0.6-1.4
				c2.2-1.7,4.9-1.7,6.2-1.6c0.5,0.1,1,0.3,1.2,0.8c1.4,3.1,2.6,9.6,2.9,11.8C299.8,236.6,299.6,237.1,299.2,237.5z"/>
		</g>
		<g>
			<path class="st7" d="M340.2,264.7c-7.9,9.4-19.4,11.5-19.4,11.5l-3.2-5.3c-0.2-4.5-1.5-24-10.4-39.5
				c-7.8-13.4-14.6-10.6-17.4-8.5c-0.1,0.1-0.3,0.2-0.4,0.3l-23.3-39.3c0.4,0.6,1.4,2,2.8,3.3l0.2,0.2c0.4,0.4,0.8,0.7,1.2,1
				c0.1,0.1,0.2,0.2,0.4,0.3c0.2,0.2,0.5,0.3,0.7,0.4c0.2,0.1,0.3,0.2,0.5,0.2c0.2,0.1,0.3,0.1,0.5,0.2c0.2,0,0.3,0.1,0.5,0.1
				c0,0,0,0,0,0c0.2,0,0.3,0,0.5,0c0.5,0,1.1-0.1,1.6-0.5c2.1-1.2,2.5-3.6,2.4-5.7c0-0.1,0-0.1,0-0.2c0-0.4,0-0.7-0.1-1.1
				c0-0.1,0-0.1,0-0.2c0-0.2-0.1-0.3-0.1-0.4c0,0,0,0,0,0c-0.1-0.9-0.3-1.5-0.4-1.6c0,0,0.1,0.1,0.1,0.2c0,0,0.1,0.1,0.1,0.1
				c0.1,0.1,0.1,0.1,0.2,0.2c0.2,0.2,0.4,0.4,0.7,0.7c0.1,0.1,0.2,0.2,0.4,0.3c0.2,0.1,0.3,0.3,0.5,0.4c0,0,0.1,0.1,0.1,0.1
				c0.2,0.2,0.4,0.3,0.6,0.4c0.1,0,0.1,0.1,0.2,0.1c0.3,0.2,0.7,0.4,1.1,0.6c0.2,0.1,0.4,0.2,0.6,0.2c0.2,0.1,0.4,0.1,0.6,0.2
				c0.2,0.1,0.4,0.1,0.6,0.1c0.5,0.1,1.1,0.1,1.6-0.1c0.2,0,0.3-0.1,0.5-0.2s0.3-0.2,0.5-0.2c0.4-0.3,0.8-0.6,1-1
				c0.1-0.1,0.1-0.2,0.2-0.3c0,0,0,0,0,0c0.1-0.2,0.2-0.4,0.2-0.6c0-0.1,0-0.1,0-0.1c0.1-0.2,0.1-0.4,0.1-0.5c0-0.2,0.1-0.4,0.1-0.6
				c0,0,0-0.1,0-0.1c0-0.4,0-0.9,0-1.4c0-0.2,0-0.4,0-0.5c-0.1-0.6-0.1-1.2-0.2-1.7c0-0.2-0.1-0.4-0.1-0.6c-0.1-0.3-0.1-0.5-0.2-0.8
				c-0.1-0.3-0.1-0.5-0.2-0.7c-0.3-1.1-0.6-1.9-0.7-2.1l16,27c-7.3-2.9-14.2-5.5-17.3-5.9c-8.2-1.3-4.6,17.2,6.7,22.6
				c11.3,5.3,22.7,10.3,22.7,10.3l23.3,32.7l0,0.1L340.2,264.7z"/>
		</g>
		<g>
			<path class="st0" d="M348.8,279.3c-7.9,9.4-19.4,11.5-19.4,11.5l-8.7-14.6c0,0,11.5-2.1,19.4-11.5L348.8,279.3z"/>
		</g>
		<g>
			<path class="st4" d="M359.7,297.5c-7.9,9.4-19.4,11.5-19.4,11.5l-10.8-18.3c0,0,11.5-2.1,19.4-11.5L359.7,297.5z"/>
		</g>
		<g>
			<path class="st4" d="M286.8,178.6c0,0.5,0,0.9,0,1.4c0,0,0,0.1,0,0.1c0,0.2,0,0.4-0.1,0.6c0,0.1,0,0.1,0,0.2c0,0.1,0,0.1,0,0.2
				c0,0.1,0,0.1-0.1,0.2c0,0.1,0,0.1,0,0.1c-0.1,0.2-0.1,0.4-0.2,0.6c0,0,0,0,0,0c-0.1,0.1-0.1,0.2-0.2,0.3c-0.2,0.4-0.6,0.8-1,1
				c-0.2,0.1-0.3,0.2-0.5,0.2s-0.3,0.1-0.5,0.2c-0.5,0.1-1,0.2-1.6,0.1c-0.2,0-0.4-0.1-0.6-0.1c-0.2-0.1-0.4-0.1-0.6-0.2
				c-0.2-0.1-0.4-0.2-0.6-0.2c-0.4-0.2-0.7-0.4-1.1-0.6c-0.1,0-0.1-0.1-0.2-0.1c-0.2-0.1-0.4-0.3-0.6-0.4c0,0-0.1-0.1-0.1-0.1
				c-0.2-0.1-0.3-0.3-0.5-0.4c-0.1-0.1-0.3-0.2-0.4-0.3c-0.3-0.3-0.5-0.5-0.7-0.7c-0.1-0.1-0.1-0.1-0.2-0.2c0-0.1-0.1-0.1-0.1-0.1
				c-0.1-0.1-0.1-0.1-0.1-0.2c0,0.1,0.2,0.7,0.4,1.6c0,0,0,0,0,0c0,0.1,0,0.3,0.1,0.4c0,0.1,0,0.1,0,0.2c0.1,0.3,0.1,0.7,0.1,1.1
				c0,0.1,0,0.1,0,0.2c0.1,2-0.4,4.4-2.4,5.7c-0.5,0.3-1.1,0.5-1.6,0.5c-0.2,0-0.3,0-0.5,0c0,0,0,0,0,0c-0.2,0-0.3-0.1-0.5-0.1
				c-0.2-0.1-0.4-0.1-0.5-0.2c-0.2-0.1-0.3-0.1-0.5-0.2c-0.2-0.1-0.5-0.3-0.7-0.4c-0.1-0.1-0.3-0.2-0.4-0.3c-0.4-0.3-0.8-0.6-1.2-1
				l-0.2-0.2c-1.3-1.3-2.4-2.8-2.8-3.3c-0.1-0.2-0.2-0.3-0.2-0.3l-3.8-19.3c2.1-1.2,5.3-3.3,6.8-6.3l16.4,14.2c0,0,0,0,0,0
				c0.1,0.2,0.4,1,0.7,2.1c0.1,0.2,0.1,0.5,0.2,0.7c0.1,0.2,0.1,0.5,0.2,0.8c0.1,0.2,0.1,0.4,0.1,0.6c0.1,0.6,0.2,1.1,0.2,1.7
				C286.8,178.2,286.8,178.4,286.8,178.6z"/>
		</g>
		<g>
			<path class="st2" d="M268.9,158c-1.5,3.1-4.6,5.2-6.8,6.3l-1.3-6.9l3.1-3.8L268.9,158z"/>
		</g>
		<g>
			<path class="st2" d="M374.5,445.1c-0.3,0-0.6-0.2-0.7-0.6l-24-90.5c-2-2.1-25-26.7-36.1-44.3c-2-3.2-3.8-6.1-5.4-8.6
				c-7.8-12.2-11-17.2-11.8-22.4c-0.9-5.4-7.2-44.6-8.6-52.9c-0.2-1.1,0.2-2.3,1-3.1c0.1-0.1,0.3-0.3,0.5-0.4c1.5-1.2,4-2.4,7.2-1.8
				c3.9,0.8,7.7,4.3,11.3,10.5c8.8,15.1,10.3,33.9,10.5,39.6l22.3,37.6c2.2-0.5,11.4-3.1,18.1-10.7l-22.6-38.1L313,226.7
				c-1.6-0.7-12.2-5.3-22.6-10.2c-8.8-4.1-12.9-15.5-11.2-20.8c0.7-2.4,2.5-3.5,5-3.2c2.8,0.4,8.7,2.4,17.5,6
				c10.6,4.2,22.3,9.4,24.7,10.5c4.9-4.1,12.4-2.3,13.9-1.9c1.3-0.6,6.8-3.1,12.5-2.3c6.8,1,34.9,28,39.2,36.5
				c4.4,8.7,14.2,86.3,14.9,91.2L464.1,444c0.2,0.4,0,0.8-0.3,1c-0.4,0.2-0.8,0-1-0.3l-57.4-111.6c0-0.1-0.1-0.2-0.1-0.2
				c-0.1-0.8-10.4-82.3-14.7-90.8c-4.4-8.8-32.2-34.8-38.1-35.7c-5.8-0.8-11.8,2.2-11.8,2.3c-0.2,0.1-0.4,0.1-0.6,0.1
				c-0.1,0-8.4-2.5-13.2,1.8c-0.2,0.2-0.5,0.3-0.8,0.1c-0.1-0.1-13.2-5.9-25-10.6c-8.6-3.5-14.5-5.5-17.2-5.9
				c-1.7-0.3-2.8,0.5-3.3,2.1c-1.5,4.9,2.6,15.3,10.4,19c11.1,5.3,22.6,10.2,22.7,10.3c0.1,0.1,0.2,0.1,0.3,0.3l23.3,32.7
				c0,0,0.1,0.1,0.1,0.1l22.9,38.6c0.2,0.3,0.1,0.6-0.1,0.9c-8,9.5-19.4,11.7-19.8,11.8c-0.3,0.1-0.6-0.1-0.8-0.4L317,271.2
				c-0.1-0.1-0.1-0.2-0.1-0.3c-0.2-5.4-1.7-24.1-10.3-39.1c-3.3-5.8-6.8-9-10.3-9.7c-2.6-0.5-4.7,0.5-6,1.5
				c-0.1,0.1-0.2,0.1-0.2,0.2c-0.5,0.5-0.7,1.2-0.6,1.9c1.4,8.4,7.7,47.5,8.6,52.9c0.8,4.8,4,9.8,11.6,21.8c1.6,2.5,3.4,5.4,5.4,8.6
				c11.5,18.2,35.8,43.9,36,44.2c0.1,0.1,0.1,0.2,0.2,0.3l24.1,90.7c0.1,0.4-0.1,0.8-0.5,0.9C374.7,445.1,374.6,445.1,374.5,445.1z"
				/>
		</g>
		<g>
			<path class="st2" d="M329.4,291.5c-0.3,0-0.5-0.1-0.6-0.4l-11.8-20c-0.1-0.1-0.1-0.2-0.1-0.3c-0.2-5.4-1.7-24.1-10.3-39.1
				c-3.3-5.8-6.8-9-10.3-9.7c-2.6-0.5-4.7,0.5-6,1.5c-0.1,0.1-0.2,0.1-0.2,0.2c-0.2,0.2-0.4,0.3-0.6,0.3c-0.2,0-0.5-0.2-0.6-0.4
				l-23.3-39.3c-0.2-0.3-0.1-0.8,0.2-1c0.3-0.2,0.8-0.1,1,0.2c0.5,0.7,1.4,2,2.7,3.2l0.2,0.2c0.4,0.4,0.7,0.7,1.1,0.9
				c0.1,0.1,0.2,0.2,0.3,0.2l0.1,0.1c0.2,0.1,0.4,0.3,0.6,0.4c0.2,0.1,0.3,0.2,0.5,0.2c0.1,0.1,0.3,0.1,0.5,0.2
				c0.1,0,0.2,0.1,0.4,0.1c0,0,0,0,0.1,0c0.6,0.1,1.1,0,1.7-0.3c1.5-0.9,2.2-2.5,2.1-5c0,0,0-0.2,0-0.2c0-0.3,0-0.7-0.1-1
				c0,0,0-0.1,0-0.1c0,0,0-0.1,0-0.1c0-0.1,0-0.3-0.1-0.3c0,0,0,0,0-0.1l0,0c-0.1-0.6-0.2-1.1-0.3-1.4c0-0.1,0-0.1,0-0.2
				c-0.1-0.3,0.1-0.7,0.4-0.8c0.3-0.2,0.7-0.1,0.9,0.1c0,0,0.1,0.1,0.2,0.2c0,0,0,0,0.1,0.1c0.1,0.1,0.1,0.2,0.2,0.2
				c0.1,0.1,0.4,0.4,0.6,0.6c0.1,0.2,0.2,0.2,0.3,0.3l0.1,0.1c0.1,0.1,0.2,0.2,0.3,0.2c0,0,0.1,0.1,0.1,0.1c0.2,0.2,0.4,0.3,0.6,0.4
				l0.2,0.2c0.3,0.2,0.6,0.4,0.9,0.5l0.1,0c0.1,0.1,0.3,0.1,0.4,0.2c0.2,0.1,0.4,0.1,0.5,0.2c0.2,0.1,0.3,0.1,0.4,0.1
				c0.5,0.1,0.9,0.1,1.3-0.1c0.1,0,0.3-0.1,0.4-0.1c0.1-0.1,0.3-0.1,0.4-0.2c0.3-0.2,0.5-0.4,0.7-0.7c0.1-0.1,0.1-0.1,0.1-0.2
				c0,0,0,0,0-0.1c0.1-0.2,0.1-0.3,0.2-0.5c0,0,0-0.2,0.1-0.2c0,0,0-0.1,0-0.2c0,0,0-0.1,0-0.1c0,0,0-0.1,0-0.1c0,0,0-0.1,0-0.1
				c0-0.1,0-0.3,0.1-0.5c0,0,0-0.1,0-0.1c0-0.4,0-0.8,0-1.3l0-0.5c-0.1-0.6-0.1-1.1-0.2-1.6c0-0.2-0.1-0.4-0.1-0.5
				c-0.1-0.3-0.1-0.5-0.2-0.8c-0.1-0.3-0.1-0.5-0.2-0.7c-0.3-1-0.6-1.8-0.6-2c-0.1-0.4,0-0.8,0.4-1c0.4-0.2,0.8,0,1,0.3l16,27
				c0.2,0.3,0.1,0.6-0.1,0.9c-0.2,0.2-0.6,0.3-0.8,0.2c-8.6-3.5-14.5-5.5-17.2-5.9c-1.7-0.3-2.8,0.5-3.3,2.1
				c-1.5,4.9,2.6,15.3,10.4,19c11.1,5.3,22.6,10.2,22.7,10.3c0.1,0.1,0.2,0.1,0.3,0.3l23.3,32.7c0,0,0.1,0.1,0.1,0.1l12.1,20.4
				c0.2,0.3,0.1,0.6-0.1,0.9c-8,9.5-19.4,11.7-19.8,11.8C329.5,291.5,329.5,291.5,329.4,291.5z M318.3,270.6l11.5,19.3
				c2.2-0.5,11.4-3.1,18.1-10.7l-11.8-19.9L313,226.7c-1.6-0.7-12.2-5.3-22.6-10.2c-8.8-4.1-12.9-15.5-11.2-20.8
				c0.7-2.4,2.5-3.5,5-3.2c2.6,0.4,7.8,2.1,15.5,5.2l-12.2-20.6c0,0.3,0.1,0.6,0.1,0.9l0,0.5c0,0.6,0,1,0,1.5c0,0,0,0.1,0,0.2
				c0,0.2,0,0.4-0.1,0.6c0,0,0,0.1,0,0.1c0,0.1,0,0.2-0.1,0.3c0,0.1,0,0.1-0.1,0.2c0,0,0,0,0,0.1c-0.1,0.3-0.2,0.5-0.3,0.7
				c0,0,0,0.1,0,0.1c-0.1,0.1-0.1,0.3-0.2,0.4c-0.3,0.5-0.7,0.9-1.2,1.2c-0.2,0.1-0.4,0.2-0.6,0.3c-0.2,0.1-0.4,0.1-0.6,0.2
				c-0.6,0.2-1.2,0.2-1.9,0.1c-0.2,0-0.5-0.1-0.7-0.2c-0.2,0-0.4-0.1-0.6-0.2c-0.1,0-0.3-0.1-0.5-0.2c-0.4-0.2-0.8-0.4-1.2-0.7
				l-0.2-0.2c-0.2-0.1-0.4-0.3-0.6-0.4c0,0-0.1-0.1-0.1-0.1c-0.1-0.1-0.2-0.2-0.3-0.3c0,0.3,0.1,0.6,0.1,1c0,0.1,0,0.2,0,0.3
				c0.1,3-0.9,5.2-2.8,6.3c-0.8,0.5-1.7,0.6-2.6,0.5c0,0-0.1,0-0.1,0c-0.2,0-0.4-0.1-0.6-0.1c-0.2-0.1-0.4-0.1-0.6-0.2
				c-0.2-0.1-0.4-0.2-0.6-0.3c-0.2-0.1-0.5-0.2-0.8-0.5l-0.1,0l19.4,32.8c1.5-1.1,3.9-2.2,6.9-1.6c3.9,0.8,7.7,4.3,11.3,10.5
				C316.6,246.1,318.1,264.9,318.3,270.6z"/>
		</g>
		<g>
			<path class="st2" d="M340.3,309.8c-0.3,0-0.5-0.1-0.6-0.4l-10.8-18.3c-0.1-0.2-0.1-0.5,0-0.7c0.1-0.2,0.3-0.4,0.5-0.4
				c0.1,0,11.4-2.2,19-11.2c0.2-0.2,0.4-0.3,0.6-0.3c0.2,0,0.5,0.2,0.6,0.4l10.8,18.3c0.2,0.3,0.1,0.6-0.1,0.9
				c-8,9.5-19.4,11.7-19.8,11.8C340.4,309.8,340.3,309.8,340.3,309.8z M330.6,291.3l10,16.9c2.2-0.5,11.4-3.1,18.1-10.7l-10-16.9
				C342.1,287.9,333.6,290.5,330.6,291.3z"/>
		</g>
		<g>
			<path class="st2" d="M273.4,190.4c-0.2,0-0.4,0-0.6,0c0,0-0.1,0-0.1,0c-0.2,0-0.4-0.1-0.6-0.1c-0.2-0.1-0.4-0.1-0.6-0.2
				c-0.2-0.1-0.4-0.2-0.6-0.3c-0.2-0.1-0.5-0.2-0.8-0.5l-0.1-0.1c-0.1-0.1-0.2-0.2-0.4-0.3c-0.3-0.2-0.7-0.5-1.2-1l-0.2-0.2
				c-1.3-1.3-2.3-2.7-2.8-3.4c-0.1-0.2-0.2-0.2-0.2-0.3c-0.1-0.1-0.1-0.2-0.1-0.3l-5.1-26.2c0-0.2,0-0.4,0.2-0.6l3.1-3.8
				c0.1-0.2,0.3-0.3,0.5-0.3c0.2,0,0.4,0,0.6,0.2l21.4,18.5c0.1,0.1,0.2,0.2,0.2,0.4c0.1,0.4,0.4,1.1,0.7,2.1
				c0.1,0.2,0.1,0.5,0.2,0.8c0.1,0.3,0.1,0.5,0.2,0.8c0,0.2,0.1,0.4,0.1,0.6c0.1,0.5,0.2,1.1,0.3,1.8l0,0.5c0,0,0,0,0,0
				c0,0.5,0,1,0,1.5c0,0,0,0.1,0,0.2c0,0.2,0,0.4-0.1,0.6c0,0,0,0.1,0,0.1c0,0.1,0,0.2-0.1,0.3c0,0.1,0,0.1-0.1,0.2c0,0,0,0,0,0.1
				c-0.1,0.3-0.2,0.5-0.3,0.7c0,0,0,0.1,0,0.1c-0.1,0.1-0.1,0.3-0.2,0.4c-0.3,0.5-0.7,0.9-1.2,1.2c-0.2,0.1-0.4,0.2-0.6,0.3
				c-0.2,0.1-0.4,0.1-0.6,0.2c-0.6,0.2-1.2,0.2-1.9,0.1c-0.2,0-0.4-0.1-0.7-0.1c-0.2-0.1-0.5-0.1-0.7-0.2c-0.1,0-0.3-0.1-0.5-0.2
				c-0.4-0.2-0.8-0.4-1.2-0.7l-0.2-0.2c-0.2-0.1-0.4-0.3-0.6-0.4c0,0-0.1-0.1-0.1-0.1c-0.1-0.1-0.2-0.2-0.3-0.3c0,0.3,0.1,0.6,0.1,1
				c0,0.1,0,0.2,0,0.3c0.1,3-0.9,5.2-2.8,6.3C274.8,190.2,274.1,190.4,273.4,190.4z M273,188.9C273,188.9,273,188.9,273,188.9
				c0.6,0.1,1.2,0,1.7-0.3c1.5-0.9,2.2-2.5,2.1-5c0,0,0-0.2,0-0.2c0-0.3,0-0.7-0.1-1c0,0,0-0.1,0-0.1c0,0,0-0.1,0-0.1
				c0-0.1,0-0.3-0.1-0.3c0,0,0,0,0-0.1l0,0c-0.1-0.6-0.2-1.1-0.3-1.4c0-0.1,0-0.1,0-0.2c-0.1-0.3,0.1-0.7,0.4-0.8
				c0.3-0.2,0.7-0.1,0.9,0.1c0,0,0.1,0.1,0.2,0.2c0,0,0,0,0.1,0.1c0.1,0.1,0.1,0.2,0.2,0.2c0.1,0.1,0.4,0.4,0.6,0.6
				c0.1,0.1,0.2,0.2,0.3,0.3l0.1,0.1c0.1,0.1,0.2,0.2,0.3,0.2c0,0,0.1,0.1,0.1,0.1c0.2,0.2,0.4,0.3,0.6,0.4l0.2,0.2
				c0.3,0.2,0.6,0.4,0.9,0.5l0.1,0c0.1,0.1,0.3,0.1,0.4,0.2c0.2,0.1,0.4,0.1,0.5,0.2c0.2,0,0.3,0.1,0.5,0.1c0.5,0.1,0.9,0,1.3-0.1
				c0.1,0,0.3-0.1,0.4-0.1c0.1-0.1,0.3-0.1,0.4-0.2c0.3-0.2,0.5-0.4,0.7-0.7c0.1-0.1,0.1-0.1,0.1-0.2c0,0,0,0,0-0.1
				c0.1-0.2,0.1-0.3,0.2-0.5c0,0,0-0.2,0.1-0.2c0,0,0-0.1,0-0.2c0,0,0-0.1,0-0.1c0,0,0-0.1,0-0.1c0,0,0-0.1,0-0.1
				c0-0.1,0-0.3,0.1-0.5c0,0,0-0.1,0-0.1c0-0.4,0-0.8,0-1.3l0-0.5c-0.1-0.6-0.1-1.1-0.2-1.6c0-0.2-0.1-0.4-0.1-0.5
				c-0.1-0.3-0.1-0.5-0.2-0.8c-0.1-0.3-0.1-0.5-0.2-0.7c-0.2-0.9-0.5-1.5-0.6-1.8L264,154.8l-2.4,2.9l5,25.7c0,0,0.1,0.1,0.1,0.2
				c0.5,0.7,1.4,2,2.6,3.2l0.2,0.2c0.4,0.4,0.7,0.7,1.1,0.9c0.1,0.1,0.2,0.2,0.3,0.2l0.1,0.1c0.2,0.1,0.4,0.3,0.6,0.4
				c0.2,0.1,0.3,0.2,0.5,0.2c0.1,0.1,0.3,0.1,0.5,0.2C272.7,188.8,272.8,188.9,273,188.9z"/>
		</g>
		<g>
			<path class="st2" d="M284.1,194c-0.3,0-0.5-0.2-0.7-0.4l-6-12.1c-0.2-0.4,0-0.8,0.3-1c0.4-0.2,0.8,0,1,0.3l6,12.1
				c0.2,0.4,0,0.8-0.3,1C284.3,194,284.2,194,284.1,194z"/>
		</g>
		<g>
			<path class="st2" d="M332.2,272.2c-0.3,0-0.5-0.1-0.6-0.4l-14.9-24.2c-0.2-0.4-0.1-0.8,0.2-1c0.4-0.2,0.8-0.1,1,0.2l14.9,24.2
				c0.2,0.4,0.1,0.8-0.2,1C332.5,272.2,332.3,272.2,332.2,272.2z"/>
		</g>
		<g>
			<path class="st2" d="M359.7,248.1c-0.2,0-0.4-0.1-0.6-0.3l-33.2-37.4c-0.3-0.3-0.2-0.8,0.1-1.1c0.3-0.3,0.8-0.2,1.1,0.1
				l33.2,37.4c0.3,0.3,0.2,0.8-0.1,1.1C360,248,359.8,248.1,359.7,248.1z"/>
		</g>
		<g>
			<path class="st2" d="M371.5,237c-0.2,0-0.4-0.1-0.5-0.2l-31.2-28.3c-0.3-0.3-0.3-0.8,0-1.1c0.3-0.3,0.8-0.3,1.1-0.1l31.2,28.3
				c0.3,0.3,0.3,0.8,0,1.1C371.9,236.9,371.7,237,371.5,237z"/>
		</g>
		<g>
			<path class="st2" d="M350.5,354.4c-0.3,0-0.7-0.2-0.7-0.6c-0.1-0.4,0.2-0.8,0.6-0.9c0.1,0,9.1-1.9,14.6-4c0.4-0.2,0.8,0,1,0.4
				c0.2,0.4,0,0.8-0.4,1c-5.5,2.2-14.4,4-14.8,4.1C350.6,354.4,350.5,354.4,350.5,354.4z"/>
		</g>
	</g>
	<g>
		<g>
			<g>
				<circle class="st6" cx="114.3" cy="139.9" r="3.4"/>
			</g>
		</g>
		<g>
			<g>
				<path class="st6" d="M130.8,143.3c-1.9,0-3.4-1.5-3.4-3.4c0-1.9,1.5-3.4,3.4-3.4c1.9,0,3.4,1.5,3.4,3.4
					C134.3,141.7,132.7,143.3,130.8,143.3z"/>
			</g>
		</g>
		<g>
			<g>
				<circle class="st6" cx="114.3" cy="156.4" r="3.4"/>
			</g>
		</g>
		<g>
			<g>
				<circle class="st6" cx="114.3" cy="172.8" r="3.4"/>
			</g>
		</g>
		<g>
			<g>
				<circle class="st6" cx="114.3" cy="189.3" r="3.4"/>
			</g>
		</g>
		<g>
			<g>
				<path class="st6" d="M110.9,205.8c0-1.9,1.5-3.4,3.4-3.4c1.9,0,3.4,1.5,3.4,3.4c0,1.9-1.5,3.4-3.4,3.4
					C112.5,209.2,110.9,207.7,110.9,205.8z"/>
			</g>
		</g>
		<g>
			<g>
				<path class="st6" d="M130.8,159.8c-1.9,0-3.4-1.5-3.4-3.4c0-1.9,1.5-3.4,3.4-3.4c1.9,0,3.4,1.5,3.4,3.4
					C134.3,158.2,132.7,159.8,130.8,159.8z"/>
			</g>
		</g>
		<g>
			<g>
				<path class="st6" d="M127.4,172.8c0-1.9,1.5-3.4,3.4-3.4c1.9,0,3.4,1.5,3.4,3.4s-1.5,3.4-3.4,3.4
					C129,176.3,127.4,174.7,127.4,172.8z"/>
			</g>
		</g>
		<g>
			<g>
				<path class="st6" d="M127.4,189.3c0-1.9,1.5-3.4,3.4-3.4c1.9,0,3.4,1.5,3.4,3.4c0,1.9-1.5,3.4-3.4,3.4
					C129,192.8,127.4,191.2,127.4,189.3z"/>
			</g>
		</g>
		<g>
			<g>
				<path class="st6" d="M127.4,205.8c0-1.9,1.5-3.4,3.4-3.4c1.9,0,3.4,1.5,3.4,3.4c0,1.9-1.5,3.4-3.4,3.4
					C129,209.2,127.4,207.7,127.4,205.8z"/>
			</g>
		</g>
		<g>
			<g>
				<circle class="st6" cx="114.3" cy="222.3" r="3.4"/>
			</g>
		</g>
		<g>
			<g>
				<path class="st6" d="M127.4,222.3c0-1.9,1.5-3.4,3.4-3.4c1.9,0,3.4,1.5,3.4,3.4s-1.5,3.4-3.4,3.4
					C129,225.7,127.4,224.2,127.4,222.3z"/>
			</g>
		</g>
	</g>
	<g>
		<g>
			<g>
				<path class="st6" d="M366.8,143.4c-1.9,0-3.4-1.5-3.4-3.4c0-1.9,1.5-3.4,3.4-3.4s3.4,1.5,3.4,3.4
					C370.2,141.9,368.7,143.4,366.8,143.4z"/>
			</g>
		</g>
		<g>
			<g>
				<path class="st6" d="M383.3,143.4c-1.9,0-3.4-1.5-3.4-3.4c0-1.9,1.5-3.4,3.4-3.4s3.4,1.5,3.4,3.4
					C386.7,141.9,385.2,143.4,383.3,143.4z"/>
			</g>
		</g>
		<g>
			<g>
				<circle class="st6" cx="366.8" cy="156.5" r="3.4"/>
			</g>
		</g>
		<g>
			<g>
				<circle class="st6" cx="366.8" cy="173" r="3.4"/>
			</g>
		</g>
		<g>
			<g>
				<circle class="st6" cx="366.8" cy="189.5" r="3.4"/>
			</g>
		</g>
		<g>
			<g>
				<circle class="st6" cx="383.3" cy="156.5" r="3.4"/>
			</g>
		</g>
		<g>
			<g>
				<circle class="st6" cx="383.3" cy="173" r="3.4"/>
			</g>
		</g>
		<g>
			<g>
				<circle class="st6" cx="383.3" cy="189.5" r="3.4"/>
			</g>
		</g>
		<g>
			<g>
				<circle class="st6" cx="349.8" cy="139.5" r="3.4"/>
			</g>
		</g>
		<g>
			<g>
				<circle class="st6" cx="349.8" cy="155.9" r="3.4"/>
			</g>
		</g>
		<g>
			<g>
				<circle class="st6" cx="349.8" cy="172.4" r="3.4"/>
			</g>
		</g>
		<g>
			<g>
				<path class="st6" d="M346.4,188.9c0-1.9,1.5-3.4,3.4-3.4s3.4,1.5,3.4,3.4c0,1.9-1.5,3.4-3.4,3.4S346.4,190.8,346.4,188.9z"/>
			</g>
		</g>
	</g>
	<g>
		<g>
			<path class="st6" d="M368.8,70.1c0,1.1-0.9,1.9-1.9,1.9h-5v5c0,1.1-0.9,1.9-1.9,1.9c-0.5,0-1-0.2-1.3-0.6
				c-0.3-0.3-0.6-0.8-0.6-1.3v-5h-5c-1.1,0-1.9-0.9-1.9-1.9c0-0.5,0.2-1,0.6-1.3c0.3-0.3,0.8-0.6,1.3-0.6h5v-5
				c0-1.1,0.9-1.9,1.9-1.9c0.5,0,1,0.2,1.3,0.6c0.3,0.3,0.6,0.8,0.6,1.3v5h5C368,68.2,368.8,69.1,368.8,70.1z"/>
		</g>
		<g>
			<path class="st6" d="M364.8,91.5c-3.3,0-3.3,5.1,0,5.1C368.1,96.6,368.1,91.5,364.8,91.5z"/>
		</g>
		<g>
			<path class="st6" d="M388.3,70.7c-3.3,0-3.3,5.1,0,5.1C391.6,75.8,391.7,70.7,388.3,70.7z"/>
		</g>
	</g>
	<g>
		<g>
			<path class="st6" d="M448.5,154c0,1.1-0.9,1.9-1.9,1.9h-5v5c0,1.1-0.9,1.9-1.9,1.9c-0.5,0-1-0.2-1.3-0.6
				c-0.3-0.3-0.6-0.8-0.6-1.3v-5h-5c-1.1,0-1.9-0.9-1.9-1.9c0-0.5,0.2-1,0.6-1.3c0.3-0.3,0.8-0.6,1.3-0.6h5v-5
				c0-1.1,0.9-1.9,1.9-1.9c0.5,0,1,0.2,1.3,0.6c0.3,0.3,0.6,0.8,0.6,1.3v5h5C447.6,152.1,448.5,153,448.5,154z"/>
		</g>
		<g>
			<path class="st6" d="M420.3,169.5c-3.3,0-3.3,5.1,0,5.1C423.6,174.6,423.7,169.5,420.3,169.5z"/>
		</g>
		<g>
			<path class="st6" d="M423.1,131.9c-3.3,0-3.3,5.1,0,5.1C426.4,137,426.4,131.9,423.1,131.9z"/>
		</g>
	</g>
	<g>
		<g>
			<path class="st6" d="M143,92.7c0,1.1-0.9,1.9-1.9,1.9h-5v5c0,1.1-0.9,1.9-1.9,1.9c-0.5,0-1-0.2-1.3-0.6c-0.3-0.3-0.6-0.8-0.6-1.3
				v-5h-5c-1.1,0-1.9-0.9-1.9-1.9c0-0.5,0.2-1,0.6-1.3c0.3-0.3,0.8-0.6,1.3-0.6h5v-5c0-1.1,0.9-1.9,1.9-1.9c0.5,0,1,0.2,1.3,0.6
				c0.3,0.3,0.6,0.8,0.6,1.3v5h5C142.2,90.8,143,91.6,143,92.7z"/>
		</g>
		<g>
			<path class="st6" d="M112,86.4c-3.3,0-3.3,5.1,0,5.1C115.3,91.5,115.3,86.4,112,86.4z"/>
		</g>
		<g>
			<path class="st6" d="M148,68.4c-3.3,0-3.3,5.1,0,5.1C151.3,73.5,151.3,68.4,148,68.4z"/>
		</g>
	</g>
	<g>
		<g>
			<path class="st6" d="M64.9,173.6c0,1.1-0.9,1.9-1.9,1.9h-5v5c0,1.1-0.9,1.9-1.9,1.9c-0.5,0-1-0.2-1.3-0.6
				c-0.3-0.3-0.6-0.8-0.6-1.3v-5h-5c-1.1,0-1.9-0.9-1.9-1.9c0-0.5,0.2-1,0.6-1.3c0.3-0.3,0.8-0.6,1.3-0.6h5v-5
				c0-1.1,0.9-1.9,1.9-1.9c0.5,0,1,0.2,1.3,0.6c0.3,0.3,0.6,0.8,0.6,1.3v5h5C64.1,171.7,64.9,172.6,64.9,173.6z"/>
		</g>
		<g>
			<path class="st6" d="M33.2,167.7c-3.3,0-3.3,5.1,0,5.1C36.5,172.9,36.5,167.7,33.2,167.7z"/>
		</g>
	</g>
</g>
</svg>
