<?xml version="1.0" encoding="utf-8"?>
<!-- Generator: Adobe Illustrator 24.1.1, SVG Export Plug-In . SVG Version: 6.00 Build 0)  -->
<svg version="1.1" xmlns="http://www.w3.org/2000/svg" xmlns:xlink="http://www.w3.org/1999/xlink" x="0px" y="0px"
	 viewBox="0 0 500 500" style="enable-background:new 0 0 500 500;" xml:space="preserve">
<style type="text/css">
	.st0{opacity:0.36;fill:#DADEEA;}
	.st1{opacity:0.36;fill:#7DBBF1;}
	.st2{fill:#48BE97;}
	.st3{fill:none;stroke:#48BE97;stroke-width:2.0108;stroke-linecap:round;stroke-miterlimit:10;}
	.st4{fill:#36A871;}
	.st5{fill:none;stroke:#FFFFFF;stroke-width:0.794;stroke-linecap:round;stroke-miterlimit:10;}
	.st6{fill:none;stroke:#FFFFFF;stroke-width:0.7248;stroke-linecap:round;stroke-miterlimit:10;}
	.st7{fill:none;stroke:#36A871;stroke-width:1.3805;stroke-linecap:round;stroke-miterlimit:10;}
	.st8{fill:#65A4DA;}
	.st9{fill:#7DBBF1;}
	.st10{fill:#0A1930;}
	.st11{fill:none;stroke:#7DBBF1;stroke-width:0.8477;stroke-linecap:round;stroke-linejoin:round;stroke-miterlimit:10;}
	.st12{fill:#F4A484;}
	.st13{fill:none;stroke:#E08D68;stroke-width:0.5651;stroke-linecap:round;stroke-linejoin:round;stroke-miterlimit:10;}
	.st14{fill:#24292D;}
	.st15{fill:#FE5456;}
	.st16{opacity:0.36;fill:#FE5456;}
	.st17{fill:#021946;}
	.st18{opacity:0.36;fill:#021946;}
	.st19{fill:#E08D68;}
	.st20{fill:#E5744C;}
	.st21{fill:#FFFFFF;}
	.st22{fill:#1B84C1;}
	.st23{opacity:0.36;fill:#1B84C1;}
	.st24{fill:#DADEEA;}
</style>
<g id="OBJECTS">
	<circle class="st0" cx="210.4" cy="190" r="142.2"/>
	<ellipse class="st1" cx="250" cy="444.3" rx="195.7" ry="13"/>
	<g>
		<path class="st2" d="M190,318.4c0,0-0.5-11.3-16.5-17.3C173.5,301.1,176,316.4,190,318.4z"/>
		<path class="st2" d="M188.8,338.4c0,0-1.7-14.6-22.8-21C165.9,317.4,170.4,336.9,188.8,338.4z"/>
		<path class="st2" d="M194.1,367.2c0,0-2.4-16.9-27.2-23.7C166.8,343.5,172.7,366.1,194.1,367.2z"/>
		<path class="st2" d="M211.4,397.5c0,0-9.4-18.2-40.3-16.1C171.1,381.3,186.6,404.7,211.4,397.5z"/>
		<path class="st2" d="M190,318.6c0,0,2.2-11.1,18.9-14.7C208.9,303.9,204.2,318.6,190,318.6z"/>
		<path class="st2" d="M188.4,338.6c0,0,3.8-14.2,25.6-17.5C214,321.1,206.7,339.8,188.4,338.6z"/>
		<path class="st2" d="M193.7,367.1c0,0-2.1-16.9,20.1-30C213.7,337.1,214,360.4,193.7,367.1z"/>
		<path class="st2" d="M210.1,397.7c0,0-8.3-18.8,12.8-41.5C222.8,356.1,231.2,382.9,210.1,397.7z"/>
		<path class="st3" d="M190.3,318.1c0,0-15.6,65.1,55.9,111.5"/>
	</g>
	<g>
		<path class="st2" d="M308.1,339.3c0,0,2.1-11.1,18.7-14.8C326.8,324.4,322.3,339.2,308.1,339.3z"/>
		<path class="st2" d="M306.2,359.4c0,0,3.7-14.2,25.5-17.6C331.7,341.8,324.6,360.5,306.2,359.4z"/>
		<path class="st2" d="M297.5,386.6c0,0,8.8-14.6,34.3-11.2C331.8,375.4,317.7,393.9,297.5,386.6z"/>
		<path class="st2" d="M276.9,414.6c0,0,14.9-14.1,43.4-1.9C320.3,412.7,297.9,429.6,276.9,414.6z"/>
		<path class="st2" d="M308.1,339.5c0,0-0.6-11.3-16.6-17.2C291.4,322.3,294,337.5,308.1,339.5z"/>
		<path class="st2" d="M306.2,359.4c0,0-1.8-14.5-23-20.8C283.2,338.5,287.8,358,306.2,359.4z"/>
		<path class="st2" d="M297.8,387c0,0,4.4-16.5-15.7-32.5C282.1,354.5,278.5,377.5,297.8,387z"/>
		<path class="st2" d="M277.3,415c0,0,10.8-17.5-6.9-42.9C270.4,372.1,258.4,397.5,277.3,415z"/>
		<path class="st3" d="M307.9,338.9c0,0,2.3,54.7-40.5,83.5"/>
	</g>
	<g>
		<path class="st4" d="M103.2,444.3c4.8-10.5,13.4-41.2,0.2-47.6c-8.3-4-10.7,2.9-10.7,2.9s6-33.6-8.2-33.7c-8.3,0-9.7,9.5-9.7,9.5
			s-4.5-10.5-10-13.6c-12-6.6-26.3,0.2-15.2,19c3,5.1,7.2,8.8,7.2,8.8s-12.5-4.7-13.7,4.2c-1.2,8.9,22.5,23.1,22.5,23.1
			s-7.1,0.3-7.4,8.5c-0.4,11.1,22.5,18.9,22.5,18.9H103.2z"/>
		<path class="st5" d="M58,370c15.5,22.8,28.3,29.6,38.7,72"/>
	</g>
	<g>
		<path class="st2" d="M113.8,444.3c-0.5-15.6,22.5-47.9,8.5-55.7c-8.7-4.9-11.2,4-11.2,4s19.7-33.3,0.9-35.5
			c-6.6-0.8-10.4,8.8-10.4,8.8s-0.2-17.1-5.4-23.6c-8.6-10.5-26.5-4.6-22.3,18c2.3,12.4,10.8,17.3,10.8,17.3s-8.6-6.6-12.7,2.1
			C66.6,391.1,85,406.1,85,406.1s-8.3-6.1-13.7,3.9C63.9,423.5,92,444.3,92,444.3H113.8z"/>
		<path class="st5" d="M88.9,354.7c10.5,26.7,16,56,18.3,87"/>
	</g>
	<g>
		<path class="st4" d="M390.1,444.3c3.4-12.6-13.1-37.5-0.3-43.9c8-4,12.3,0.1,12.3,0.1s-9.5-25.1,6.2-26.9c5.5-0.6,7.1,4.2,7.1,4.2
			s2.2-7.4,8-12.1c11.1-8.8,25.6-5.6,17.8,12.8c-4.3,10.1-7.6,11.5-7.6,11.5s7.7-1.5,9.4,5.5c2.2,9.4-16.3,25.1-16.3,25.1
			s6.6,0.6,7.5,5.6c1.9,11-21.4,18-21.4,18H390.1z"/>
		<path class="st6" d="M436.4,367.6c-21.3,17.3-22.1,52.5-32.9,72.8"/>
	</g>
	<g>
		<path class="st2" d="M380.5,444.3c-7.7-12.7-24.5-49.9-12.2-57.6c7.7-4.9,12,3.5,12,3.5s-14.8-40.7,0.2-40.8
			c8.7-0.1,12.6,11.5,12.6,11.5s3-11.9,7.1-19.1c9.5-16.5,31.9-9.9,24,16.3c-2,6.6-8,15.1-8,15.1s13.9-0.8,13.5,11.2
			c-0.3,11.4-19.6,22.1-19.6,22.1s12.8-2.8,15.1,7.1c3.2,13.4-25,30.9-25,30.9H380.5z"/>
		<path class="st6" d="M413.5,348.3c-10.7,36.4-26.5,41.8-26.7,93.2"/>
	</g>
	<g>
		<path class="st4" d="M250.1,349.9c0,0,0.9-7.7,12.1-11.1C262.2,338.7,259.8,349.1,250.1,349.9z"/>
		<path class="st4" d="M250.1,363.6c0,0,1.8-9.9,16.6-13.4C266.7,350.2,262.7,363.4,250.1,363.6z"/>
		<path class="st4" d="M245.2,383.1c0,0,2.4-11.5,19.7-15C264.9,368.1,259.9,383.3,245.2,383.1z"/>
		<path class="st4" d="M232,403.1c0,0,7.2-12.1,28.3-9.3C260.4,393.8,248.7,409.1,232,403.1z"/>
		<path class="st4" d="M250.1,350c0,0-1-7.7-12.3-10.9C237.8,339.1,240.4,349.4,250.1,350z"/>
		<path class="st4" d="M250.4,363.7c0,0-2-9.9-16.8-13.1C233.6,350.7,237.7,363.8,250.4,363.7z"/>
		<path class="st4" d="M245.5,383.1c0,0,2.2-11.5-12.4-21.4C233.1,361.6,231.9,377.6,245.5,383.1z"/>
		<path class="st4" d="M232.9,403.3c0,0,6.5-12.5-6.9-29C226,374.3,219.1,392.3,232.9,403.3z"/>
		<path class="st7" d="M250,349.6c0,0,7.9,45.3-43.2,74"/>
	</g>
	<g>
		<path class="st8" d="M251.3,444.3c-13,0-12.4,0-14.7,0c-10.2,0-26.2-28.7-26.2-39.8c0-11.1,15.9-40.4,26.2-40.4
			c5.1,0,1.6,0,14.7,0c13.1,0,23.4,4.1,30.7,12.1c7,7.7,10.6,17.2,10.6,28.3c0,11.2-3.6,20.6-10.7,28.2
			C274.6,440.4,264.3,444.3,251.3,444.3z M212.4,329.4l0.2-11.5c0.4-19.9,3.1-35.4,8.2-47.5c5.2-12.2,15.2-24.9,30.5-39.1l0.2-0.2
			l35.4-30.9c12.9-12.4,19.2-25,19.2-38.6c0-12.9-3.7-22.5-11.3-29.5c-7.8-7.1-19.8-10.7-35.9-10.7c-15.9,0-28.7,3.4-37.9,10.2
			c-8.4,6.2-12.3,13.9-12.3,24.3v11.3h-73.1l0.2-11.5c0.4-28.5,12.5-51.7,36-69.2c22.5-16.7,51.8-25.2,87.1-25.2
			c36.8,0,66.1,8.7,87.2,25.9c21.8,17.8,32.8,42.3,32.8,72.8c0,30.1-16.1,59.6-47.8,87.8l-0.2,0.2L301.5,273
			c-10.8,10.3-16.1,25.1-16.1,45.2v11.3H212.4z"/>
		<path class="st9" d="M236.6,444.3c-13,0-23.3-3.9-30.5-11.7c-7-7.5-10.5-17-10.5-28.1c0-11.1,3.5-20.6,10.3-28.2
			c7.2-8.1,17.5-12.1,30.6-12.1c13.1,0,23.4,4.1,30.7,12.1c7,7.7,10.6,17.2,10.6,28.3c0,11.2-3.6,20.6-10.7,28.2
			C259.8,440.4,249.6,444.3,236.6,444.3z M197.6,329.4l0.2-11.5c0.4-19.9,3.1-35.4,8.2-47.5c5.2-12.2,15.2-24.9,30.5-39.1l0.2-0.2
			l35.4-30.9c12.9-12.4,19.2-25,19.2-38.6c0-12.9-3.7-22.5-11.3-29.5c-7.8-7.1-19.8-10.7-35.9-10.7c-15.9,0-28.7,3.4-37.9,10.2
			c-8.4,6.2-12.3,13.9-12.3,24.3v11.3H121l0.2-11.5c0.4-28.5,12.5-51.7,36-69.2c22.5-16.7,51.8-25.2,87.1-25.2
			c36.8,0,66.1,8.7,87.2,25.9c21.8,17.8,32.8,42.3,32.8,72.8c0,30.1-16.1,59.6-47.8,87.8l-0.2,0.2L286.8,273
			c-10.8,10.3-16.1,25.1-16.1,45.2v11.3H197.6z"/>
	</g>
	<g>
		<g>
			<path class="st10" d="M143.2,428.7c0.4,4.8-1.2,15.4,0,15.6h35.1c0,0,0.4-5.4-3.8-6.5c-5.6-1.5-12.3-2.7-14.9-4.9
				c-1.2-1.1-1.9-4.2-1.9-4.2H143.2z"/>
			<path class="st11" d="M168.8,436.3c0,0-4.5-0.4-6.1,2.1"/>
			<path class="st11" d="M164.7,435.1c0,0-4.5-0.4-6.1,2.1"/>
		</g>
		<g>
			<path class="st10" d="M122.7,428.7c-0.4,6.8,0.7,15.1-1.2,15.6H98.2c0,0-0.3-3.8,2.8-7c1.3-1.3,4.3-2.8,5.7-4.2
				c1.2-1.2,1.4-4.5,1.4-4.5H122.7z"/>
			<path class="st11" d="M108.7,437.2c0,0-3-3.5-6.7-0.7"/>
			<path class="st11" d="M112.3,435.4c0,0-4.5-3.7-7.9-0.8"/>
		</g>
		<g>
			<path class="st12" d="M168.7,238.6c1,6.3,0.7,13,1,12.7c0.8-0.9,10.8-5.8,11.6-6.2c3.7-1.9,6.6-1.8,8.6-1.7
				c0.7,0,2.7-0.1,2.7-0.1s1.6-0.4,2.7,0.1c1.1,0.5,1.4,1.4,0.4,1.7c-0.9,0.3-2.7,0.6-2.7,0.6s3.6-0.1,6.4-0.3
				c1.1-0.1,1.2,1.4,1.2,1.4s0.4-0.1,0.7-0.1c1.4-0.3,2,1.8,1.4,2c-1,0.3-1.6,0.4-1.6,0.4c0.4,0.1,1,1.1,0.1,1.4
				c-1,0.3-3.6,0.8-3.6,0.8c0.6,0,1.1,1.2,0.8,1.3c-1.5,0.5-6.4,1.8-7.1,1.8c-0.6,0.1-3.9,0-5.3-0.2c-1.1-0.2-3.6-0.7-3.6-0.7
				s-16.2,13.2-18.6,12.6c-1.8-0.5-5.2-2.6-5.8-5.8c-0.6-3.2-4.4-22.1-4.4-22.1C155.1,228.7,167.2,229.1,168.7,238.6z"/>
			<path class="st13" d="M181.2,248.7c0,0-0.1,3.1,0.9,4.5"/>
			<path class="st13" d="M190.7,246.1c0,0-1.6,2.7-6.6,2.3c3.8,0.7,6.2,4.5,6.2,4.5"/>
			<line class="st13" x1="197.2" y1="251.3" x2="191.8" y2="252.1"/>
			<line class="st13" x1="200.3" y1="249" x2="192.2" y2="249.9"/>
			<line class="st13" x1="200" y1="246.8" x2="192.6" y2="247.5"/>
		</g>
		<path class="st14" d="M153.7,171.4c0,0,1.5,1.6,1.9,5c0.4,3.5-2.3,8.1-2.3,8.1L153.7,171.4z"/>
		<path class="st15" d="M163.8,285.5c1.1,10.8-5,144.6-5,144.6h-15.7c0,0-4.9-95.2-4.2-109.1c0.7-13.9-2.3-27.1-1.5-35.5
			C138.3,277.1,161.9,267.3,163.8,285.5z"/>
		<path class="st15" d="M142.9,285.9c0,48.4-19.6,144.2-19.6,144.2h-16.1c0,0,8.1-109,8.4-123c0.2-10,1.3-17,2.3-25.5
			C119.6,267.4,142.9,267.7,142.9,285.9z"/>
		<path class="st16" d="M163.9,295.6c-0.7-0.4-1.5-0.9-2.4-1.4c-2.3-1.4-3-1.1-18.9-0.1c-0.2,0-0.4,0-0.6,0c-1.6,0.1-3.1,0.1-4.6,0
			c-10-0.4-18.1-3.9-20.5-5c0.3-2.4,0.6-4.9,0.9-7.5c1.4-12.3,19-13.8,23.8-2.3c7.1-5.5,20.7-7.5,22.2,6.1
			C164,286.9,164,290.5,163.9,295.6z"/>
		<path class="st17" d="M158.9,208.5c11.5,10.8,10.8,39.4,10.8,39.4s-10.6,7-16.9,4.3c0,0-4.8-29.4-2.2-38.5
			C152.2,208.2,156.8,206.5,158.9,208.5z"/>
		<path class="st18" d="M166.9,235.8c-0.2,5.5-0.1,10.7-0.4,14.1c-3.6,1.9-9.5,4.2-13.6,2.4c0,0-4.8-29.4-2.2-38.5
			c0.7-2.4,1.9-4.1,3.3-5.1l5-0.2c0,0,0,0,0,0C159.5,209.1,167.5,215.6,166.9,235.8z"/>
		<path class="st17" d="M129.5,204.2c0,0-16.8,2.8-17.4,5.8c-0.5,3.1,5.9,47.4,5.9,57.8c0,10.4-1.2,20.2-1.2,20.2s13.5,3.8,26.4,3.5
			c12.9-0.2,21.1-2.2,21.1-2.2s-0.7-12.8-1-21.3c-0.3-8.5,1.8-33.3,1.8-42.4c0-7.9-3.7-14.4-6.1-17.2c-2-2.3-12.5-4.8-12.5-4.8
			L129.5,204.2z"/>
		<path class="st18" d="M121.4,264.3c-1.4,2.6-2.6,4.8-3.5,6.6c0-1,0-2.1,0-3.2c0-6.9-2.8-28.8-4.6-43.6l13-7.5
			C128,221.7,128,252.4,121.4,264.3z"/>
		<path class="st19" d="M131,198l-1.5,6.2c0,0,6.6,11,14.4,9.9c7.8-1.1,2.5-10.4,2.5-10.4l0.3-4.1l-14.4-8.5L131,198z"/>
		<path class="st12" d="M154.4,174.4c0.4,2.1,0.2,8.8-0.2,14.1c-0.4,5-1.8,12.4-4.6,13c-2.9,0.6-15.2-1.7-15.8-8.8
			c-2.1-1.7-10.1-11.4-7.3-16.3C131.6,167.7,153.1,167.7,154.4,174.4z"/>
		<ellipse class="st14" cx="144.4" cy="185" rx="0.9" ry="1.3"/>
		<path class="st14" d="M152.9,184.6c0,0.7-0.4,1.3-0.9,1.3c-0.5,0-0.9-0.6-0.9-1.3s0.4-1.3,0.9-1.3
			C152.5,183.3,152.9,183.9,152.9,184.6z"/>
		<g>
			<path class="st14" d="M145.8,181.9c-0.8-0.2-1.6-0.4-2.3-0.3c-0.7,0.1-1.4,0.5-2.1,1c0.2-0.4,0.4-0.8,0.7-1.1
				c0.3-0.3,0.8-0.5,1.2-0.5C144.3,180.9,145.2,181.2,145.8,181.9z"/>
		</g>
		<g>
			<path class="st14" d="M149.6,181.5c0.6-0.6,1.5-1,2.4-0.9c0.5,0.1,0.9,0.2,1.2,0.5c0.4,0.3,0.6,0.7,0.7,1.1
				c-0.7-0.5-1.3-0.9-2.1-1C151.2,181.1,150.4,181.3,149.6,181.5z"/>
		</g>
		<g>
			<path class="st20" d="M149,186.5c0.1,0.7,0.5,1.4,0.9,2.1l1.1,2c0.2,0.3,0.4,0.7,0.5,1c0.1,0.2,0.2,0.4,0.2,0.7
				c0,0.1,0,0.2,0,0.3c0,0.1-0.1,0.1-0.1,0.2c-0.1,0.1-0.2,0.2-0.3,0.3c-0.4,0.2-0.8,0.4-1.2,0.4c-0.4,0.1-0.8,0.1-1.2,0.1l0-0.1
				c0.7-0.3,1.4-0.6,1.9-1c0.1-0.1,0.2-0.2,0.1-0.2c0-0.1,0-0.3-0.1-0.4c-0.1-0.3-0.2-0.7-0.4-1l-0.9-2.1
				C149.2,188,148.9,187.3,149,186.5L149,186.5z"/>
		</g>
		<path class="st21" d="M151.7,194.6c0,0-2.3-0.2-4.6,0.9c0,0,3.9,0.6,4.3,0.2C151.7,195.4,151.7,194.6,151.7,194.6z"/>
		<path class="st14" d="M154.8,176.2c-0.6,1.3-4.9,3.3-12.8,2.9c0,0,3.9-1.1,4.8-4.2c0,0-3.2,4.8-9.3,4.7c0,0,0.5,4.3-2.1,8.8
			c0,0-1.8,2.3-1.5,4.2c0.2,1.8-1.6,4.9-2.9,5.7c-0.7-5.6-6.6-16.6-5.5-22.7c1.2-6.2,6.8-6.3,6.8-6.3c2.6-4.1,12-5.7,18.2-2.4
			C155.1,169.3,155.9,173.7,154.8,176.2z"/>
		<path class="st12" d="M136,186.5c-1.3-3.2-5.7-3-5.8-0.2c0,4.5,2.7,5.8,3.6,6.4C134.8,193.2,136.8,188.4,136,186.5z"/>
		<g>
			<path class="st12" d="M109,238.8c-1,6.3-1.9,12.5-2.2,12.2c-0.8-0.9-15.4-4.9-16.3-5.4c-4.2-2.5-7.2-2.1-9.1-2.1l-2.7-0.1
				c0,0-1.6-0.4-2.7,0.1c-1.1,0.5-1.4,1.4-0.4,1.7c0.9,0.3,2.7,0.6,2.7,0.6s-3.6-0.1-6.4-0.3c-1.1-0.1-1.2,1.4-1.2,1.4
				s-0.4-0.1-0.7-0.1c-1.4-0.3-2,1.8-1.4,2c1,0.3,1.6,0.4,1.6,0.4c-0.4,0.1-1,1.1-0.1,1.4c1,0.3,3.6,0.8,3.6,0.8
				c-0.6,0-1.1,1.2-0.8,1.3c1.5,0.5,6.4,1.8,7.1,1.8c0.6,0.1,3.9,0,5.3-0.2c1.1-0.2,3.6-0.3,3.6-0.3s20.6,10,23,10.3
				c2.2,0.3,5.9-0.5,7.1-3.9c1.1-3.1,5.6-21.7,5.6-21.7C123.3,229.2,110.6,229.3,109,238.8z"/>
			<path class="st13" d="M89.3,253.8c0,0,1-1.3,1.2-3.2"/>
			<path class="st13" d="M80.8,246.1c0,0,1.6,2.7,6.6,2.3c-3.8,0.7-6.2,4.5-6.2,4.5"/>
			<line class="st13" x1="74.2" y1="251.3" x2="79.6" y2="252.1"/>
			<line class="st13" x1="71.1" y1="249" x2="79.3" y2="249.9"/>
			<line class="st13" x1="71.5" y1="246.8" x2="78.9" y2="247.5"/>
		</g>
		<path class="st17" d="M112.1,210c-5.6,11.1-5.8,36.3-5.8,36.3s11,5.7,17.6,3.1c0,0,4.2-23.9,2.6-32.7
			C125.4,211.3,114.8,204.6,112.1,210z"/>
	</g>
	<g>
		<g>
			<path class="st15" d="M348.2,428.7c-0.4,4.8,1.2,15.4,0,15.6H313c0,0-0.4-5.4,3.8-6.5c5.6-1.5,12.3-2.7,14.9-4.9
				c1.2-1.1,1.9-4.2,1.9-4.2H348.2z"/>
			<path class="st11" d="M322.6,436.3c0,0,4.5-0.4,6.1,2.1"/>
			<path class="st11" d="M326.7,435.1c0,0,4.5-0.4,6.1,2.1"/>
		</g>
		<g>
			<path class="st15" d="M368.6,428.7c0.4,6.8-0.7,15.1,1.2,15.6h23.4c0,0,0.3-3.8-2.8-7c-1.3-1.3-4.3-2.8-5.7-4.2
				c-1.2-1.2-1.4-4.5-1.4-4.5H368.6z"/>
			<path class="st11" d="M382.7,437.2c0,0,3-3.5,6.7-0.7"/>
			<path class="st11" d="M379,435.4c0,0,4.5-3.7,7.9-0.8"/>
		</g>
		<path class="st17" d="M326.5,285.1c-1.1,10.8,6.4,145,6.4,145h15.7c0,0,4.9-95.2,4.2-109.1c-0.7-13.9,2.3-27.1,1.5-35.5
			C353.4,277.1,328.4,266.9,326.5,285.1z"/>
		<path class="st17" d="M348.8,285.9c0,48.4,19.6,144.2,19.6,144.2h16.1c0,0-8.1-109-8.4-123c-0.2-10-1.3-17-2.3-25.5
			C372.1,267.4,348.8,267.7,348.8,285.9z"/>
		<path class="st18" d="M374.8,289.6c-2.7,1.2-10.8,4.3-20.6,4.4c-0.9,0-1.8,0-2.8-0.1c-0.8,0-1.7-0.1-2.5-0.1
			c-11.8-0.6-18.3-0.4-20.4,0.2c-0.8,0.2-1.5,0.9-2.2,1.7c-0.1-5.3-0.1-9.1,0-10.5c1.4-13.8,16.1-11.3,23.5-5.6
			c1.2-2.9,3.1-5,5.5-6.3l11.2-0.8c3.7,1.4,6.6,4.6,7.2,9.3C374.1,284.5,374.5,287,374.8,289.6z"/>
		<path class="st22" d="M333.5,208.5C322,219.3,322.7,248,322.7,248s10.6,7,16.9,4.3c0,0,4.8-29.4,2.2-38.5
			C340.3,208.2,335.7,206.5,333.5,208.5z"/>
		<path class="st22" d="M365.6,204.2c0,0,16,5.1,16.5,8.2c0.5,3.1-8.4,44.5-8.4,54.9c0,10.4,1.1,20.7,1.1,20.7s-13.5,3.8-26.4,3.5
			c-12.9-0.2-22.5-2.6-22.5-2.6s0.7-12.7,1-21.2c0.3-8.5,0.4-33,0.4-42.1c0-7.9,3.7-14.4,6.1-17.2c2-2.3,15.2-4.8,15.2-4.8
			L365.6,204.2z"/>
		<path class="st23" d="M373.8,267.3c0,2.9,0.1,5.8,0.2,8.4c-2.6-5.1-7.4-9.7-9.8-10.5c-3.1-1-29.5-11.8-31.6-11.3
			c-1.1,0.2-3.4-0.1-5.4-0.4c0-3,0.1-6.2,0.1-9.4l13.8-38.6c3.8-1,7.6-1.7,7.6-1.7c-1.1,0.9-2.7,6-3.9,8.6
			c-1.2,2.6-7.5,29.3-7.5,29.3l21.5,2.1c2.7-20.5,8.5-28.8,8.5-28.8l12.8,10.8C377.7,239.8,373.8,260.4,373.8,267.3z"/>
		<path class="st19" d="M364.1,198l1.5,6.2c0,0-6.6,11-14.4,9.9c-7.8-1.1-2.5-10.4-2.5-10.4l-0.3-4.1l14.4-8.5L364.1,198z"/>
		<path class="st12" d="M341.2,174.4c-0.4,2.1-0.8,8.8-0.4,14c0.4,5,1.7,12.4,4.6,13c2.9,0.6,15.2-1.7,15.8-8.8
			c2.1-1.7,10.1-11.4,7.3-16.3C363.5,167.7,342.5,167.8,341.2,174.4z"/>
		<ellipse class="st14" cx="350.7" cy="185" rx="0.9" ry="1.3"/>
		<ellipse class="st14" cx="343.2" cy="184.5" rx="0.9" ry="1.3"/>
		<g>
			<path class="st14" d="M349.2,182.4c0.4-0.8,1.4-1.3,2.4-1.3c0.5,0,1,0.1,1.4,0.4c0.4,0.3,0.7,0.6,0.9,1c-0.4-0.2-0.8-0.3-1.2-0.4
				c-0.4-0.1-0.7-0.2-1.1-0.2C350.8,181.9,350.1,182.1,349.2,182.4z"/>
		</g>
		<g>
			<path class="st14" d="M346.1,181.9c-0.9-0.3-1.6-0.5-2.3-0.5c-0.4,0-0.7,0.1-1.1,0.2c-0.4,0.1-0.7,0.3-1.2,0.4
				c0.2-0.4,0.5-0.8,0.9-1c0.4-0.3,0.9-0.4,1.4-0.4C344.7,180.6,345.6,181.1,346.1,181.9z"/>
		</g>
		<g>
			<path class="st19" d="M346.2,186.5c0,0.8-0.3,1.6-0.6,2.3l-0.9,2.2c-0.1,0.4-0.3,0.7-0.4,1.1c-0.1,0.2-0.1,0.4-0.1,0.5
				c0,0,0,0,0,0.1c0,0,0,0,0,0c0,0,0.1,0.1,0.1,0.1c0.5,0.4,1.3,0.7,1.9,1.1l0,0.1c-0.4,0-0.8,0-1.2-0.1c-0.4-0.1-0.8-0.2-1.2-0.5
				c-0.1-0.1-0.2-0.2-0.3-0.3c0,0-0.1-0.2-0.1-0.3c0-0.1,0-0.2,0-0.2c0-0.3,0.1-0.5,0.2-0.7c0.2-0.4,0.4-0.7,0.5-1.1l1.1-2.1
				C345.6,188,346,187.3,346.2,186.5L346.2,186.5z"/>
		</g>
		<path class="st21" d="M343.2,195.6c0,0,2.3-0.8,4.6,0.3c0,0-3.9,0.6-4.3,0.2C343.1,195.7,343.2,195.6,343.2,195.6z"/>
		<path class="st14" d="M340.8,177.1c0.6,1.3,11.9,1.3,18.1,1.1c0,0-1.8,5.7,0.8,10.1c0,0,1.8,2.3,1.5,4.2c-0.2,1.8,2.7,5.9,2.8,4.5
			c0.5-4.4,6.7-17,5-23.1c-1.4-5.1-4.6-4.9-4.6-4.9c-2.6-4.1-8.9-1.9-21.7-4.7C337.6,163.3,339.7,174.7,340.8,177.1z"/>
		<path class="st12" d="M359.1,186.5c1.3-3.2,5.7-3,5.8-0.2c0,4.5-2.7,5.8-3.6,6.4C360.3,193.2,358.3,188.4,359.1,186.5z"/>
		<g>
			<path class="st12" d="M325.8,251c1.9,0.7,2.5,0.8,3.3,0.9c1.9,0.1,3.2-0.1,3.2-0.1s28.6,10,31.3,9.9c2-0.1,6.4-1.4,8.3-4.6
				c1.8-3.1,5.8-15.3,7.3-20.8c2.8-10.2-10.9-11.9-14.5-1.9c-2.4,6.6-3,13.4-3.3,13c-0.7-1.1-24.5-3.6-25-4.4
				c-1-1.7-4.4-2.5-5.3-2.5c-1.1,0-1.5-0.2-2-0.3c-1.3-0.3-2.4,1-1.2,1.6c1,0.4,2.7,1.2,2.7,1.2s-6.1-2.2-7.3-2.6
				c-1.2-0.4-2.5,1.3-0.9,2.2c1.6,0.9,1.9,1.1,1.9,1.1s-1.1-0.8-2.2-0.5c-0.7,0.2-0.3,2.2,0.5,2.4c0.1,0,0.4,0.1,0.4,0.1
				s-1.6,1.6,0.6,2.4c0.2,0.1,0.4,0.1,0.4,0.1s-1.3,1.1-0.3,1.8C324.8,250.4,325.8,251,325.8,251z"/>
		</g>
		<g>
			<path class="st12" d="M345.6,208.1c-0.7,2.9-1.9,2.2-2.3,3.1c-0.4,0.9-8,29.8-8.3,31.1c-0.9,4.3-6.3,7.6-9.4,6.2
				c-3.4-1.5-4.6-6.3-3.9-9c0.6-2.6,14.4-30.5,14.4-30.5s1-8.7,1.6-9c1.5-0.9,4.4-1.9,4.7-1.9c1-0.2,5.9,0,5.8,0
				c0,0-0.1,1.1-0.9,1.6c-0.3,0.2-4.1,0.6-4.1,0.6s3.5,0.2,3.6,0.5c0.2,0.3,0.6,4.3,0.4,4.7C346.7,207,345.6,207.8,345.6,208.1z"/>
			<line class="st13" x1="340" y1="201" x2="341.6" y2="200.6"/>
			<path class="st13" d="M340.3,202.5c0,0,4.9,0.1,5.1,0.2c0.1,0.1,0.5,2.3,0.9,2.6s0.5,0.3,0.5,0.3"/>
			<path class="st13" d="M339.5,204.4c0,0,4,0.4,4.3,0.6c0.2,0.1,0.7,2.4,1.5,2.4c0.8,0,1-0.8,1-0.8"/>
			<line class="st13" x1="339.8" y1="206.4" x2="343" y2="206.9"/>
			<path class="st13" d="M341.9,207.9c-0.8,0.1-0.4,1.4,0,1.5c0.4,0.1,1.8,0.1,2.1,0c0.3-0.1,0.8-0.9,0.9-1.5c0-0.3-0.4-1.5-0.4-1.5
				"/>
			<path class="st13" d="M343.8,210.6c0,0-1.8,1.1-4.5,0.6"/>
			<path class="st13" d="M342.9,211.7c0,0-0.8,0.5-2.6-0.1"/>
			<path class="st13" d="M342.8,198c0,0,5.1,0.1,5.3,0.1c0.2,0-0.2,1.5-0.9,1.6c-0.6,0.2-4.1,0.6-4.1,0.6s3.6,0.2,3.6,0.5
				s0.3,1.8,0.3,1.8"/>
		</g>
		<path class="st22" d="M382.2,212.3c5.3,5.7-6.3,37-6.3,37s-9-0.6-15.5-3.3c0,0,5-27.2,7-31.1C369.9,210.1,378.1,207.8,382.2,212.3
			z"/>
		<path class="st13" d="M335.1,241.7c-0.8,3.3-3.6,7.9-8.5,7.1c-4.1-0.7-4.9-5.9-4.9-5.9"/>
	</g>
	<g>
		
			<ellipse transform="matrix(0.9205 -0.3906 0.3906 0.9205 -37.2654 47.3163)" class="st24" cx="97.7" cy="115.3" rx="36.5" ry="36.5"/>
		<path class="st21" d="M85.3,115.3c0,2.6-2.1,4.7-4.7,4.7s-4.7-2.1-4.7-4.7c0-2.6,2.1-4.7,4.7-4.7S85.3,112.7,85.3,115.3z"/>
		<path class="st21" d="M102.3,115.3c0,2.6-2.1,4.7-4.7,4.7s-4.7-2.1-4.7-4.7c0-2.6,2.1-4.7,4.7-4.7S102.3,112.7,102.3,115.3z"/>
		<path class="st21" d="M119.4,115.3c0,2.6-2.1,4.7-4.7,4.7c-2.6,0-4.7-2.1-4.7-4.7c0-2.6,2.1-4.7,4.7-4.7
			C117.3,110.6,119.4,112.7,119.4,115.3z"/>
		<path class="st24" d="M96.1,149c0,0,3.7,9.2,18.7,9.7c0,0-6.4-4.6-6.4-12.1L96.1,149z"/>
	</g>
	<g>
		
			<ellipse transform="matrix(0.9741 -0.2262 0.2262 0.9741 -22.1039 94.9345)" class="st24" cx="403.2" cy="143.9" rx="36.5" ry="36.5"/>
		<path class="st21" d="M415.6,143.9c0,2.6,2.1,4.7,4.7,4.7s4.7-2.1,4.7-4.7c0-2.6-2.1-4.7-4.7-4.7S415.6,141.3,415.6,143.9z"/>
		<path class="st21" d="M398.5,143.9c0,2.6,2.1,4.7,4.7,4.7c2.6,0,4.7-2.1,4.7-4.7c0-2.6-2.1-4.7-4.7-4.7
			C400.6,139.3,398.5,141.3,398.5,143.9z"/>
		<path class="st21" d="M381.5,143.9c0,2.6,2.1,4.7,4.7,4.7s4.7-2.1,4.7-4.7c0-2.6-2.1-4.7-4.7-4.7S381.5,141.3,381.5,143.9z"/>
		<path class="st24" d="M404.8,177.7c0,0-3.7,9.2-18.7,9.7c0,0,6.4-4.6,6.4-12.1L404.8,177.7z"/>
	</g>
	<g>
		<path class="st2" d="M193.8,444.3c0,0,0.6-13.9-12.6-24.4c0,0,18.4,2,19.9,24.3L193.8,444.3z"/>
		<path class="st4" d="M195.7,444.3c0,0-1.7-23.1,18.9-27.9c0,0-11.8,8.3-13,27.9H195.7z"/>
		<path class="st2" d="M195.7,444.3c0,0,4.7-20.6,24.2-19.9c0,0-14.8,8.3-15.6,19.9H195.7z"/>
	</g>
	<g>
		<path class="st2" d="M294.7,444.3c0,0-2.6-8.7,9-13.4c0,0-13.2-2.5-14.2,13.4L294.7,444.3z"/>
		<path class="st4" d="M293.3,444.3c0,0-2.4-9.7,2.6-21.8c0,0-9.3,4.6-6.8,21.8H293.3z"/>
		<path class="st2" d="M293.3,444.3c0,0-0.8-11.1-14.7-10.6c0,0,10,3.2,8.6,10.6H293.3z"/>
	</g>
</g>
</svg>
