<svg width="24" height="24" viewBox="0 0 24 24" fill="none" xmlns="http://www.w3.org/2000/svg">
<g id="rss">
<path id="Vector" d="M8.4 17.8C8.4 19.015 7.415 20 6.2 20C4.985 20 4 19.015 4 17.8C4 16.585 4.985 15.6 6.2 15.6C7.415 15.6 8.4 16.585 8.4 17.8Z" fill="white"/>
<path id="Vector_2" d="M14.6 20H11.5C11.5 15.9 8.1 12.5 4 12.5V9.40002C9.9 9.40002 14.6 14.1 14.6 20Z" fill="white" />
<path id="Vector_3" d="M16.8 20C16.8 12.9 11.1 7.2 4 7.2V4C12.8 4 20 11.2 20 20H16.8Z" fill="white" />
</g>
</svg>
